<mxfile host="app.diagrams.net" modified="2024-01-08T13:03:20.759Z" agent="Mozilla/5.0 (X11; Linux x86_64; rv:109.0) Gecko/20100101 Firefox/117.0" etag="Q2BE-qqYJfkBw-MCWCbQ" version="22.1.16" type="github">
  <diagram name="Page-1" id="97916047-d0de-89f5-080d-49f4d83e522f">
    <mxGraphModel dx="2074" dy="1154" grid="1" gridSize="10" guides="1" tooltips="1" connect="1" arrows="1" fold="1" page="1" pageScale="1.5" pageWidth="1169" pageHeight="827" background="none" math="0" shadow="0">
      <root>
        <mxCell id="0" />
        <mxCell id="1" parent="0" />
        <mxCell id="3inxD1MIb9kolvRJ3LJd-46" value="" style="edgeStyle=orthogonalEdgeStyle;rounded=1;orthogonalLoop=1;jettySize=auto;html=1;endArrow=block;strokeColor=#23445D;strokeWidth=4;endFill=1;fontStyle=1;" parent="1" source="2" target="3inxD1MIb9kolvRJ3LJd-44" edge="1">
          <mxGeometry relative="1" as="geometry" />
        </mxCell>
        <mxCell id="2" value="Raw file decoding" style="rounded=1;fillColor=#10739E;strokeColor=none;shadow=1;gradientColor=none;fontStyle=1;fontColor=#FFFFFF;fontSize=14;flipV=1;flipH=0;" parent="1" vertex="1">
          <mxGeometry x="80" y="120" width="140" height="70" as="geometry" />
        </mxCell>
        <mxCell id="3" value="Doppler centroid&#xa;estimation" style="rounded=1;fillColor=#10739E;strokeColor=none;shadow=1;gradientColor=none;fontStyle=1;fontColor=#FFFFFF;fontSize=14;flipV=1;flipH=0;" parent="1" vertex="1">
          <mxGeometry x="80" y="360" width="140" height="70" as="geometry" />
        </mxCell>
        <mxCell id="13" value="Range&#xa;compression" style="rounded=1;fillColor=#10739E;strokeColor=none;shadow=1;gradientColor=none;fontStyle=1;fontColor=#FFFFFF;fontSize=14;flipV=1;flipH=0;" parent="1" vertex="1">
          <mxGeometry x="80" y="480" width="140" height="70" as="geometry" />
        </mxCell>
        <mxCell id="14" value="Processing speed &#xa;estimation" style="rounded=1;fillColor=#10739E;strokeColor=none;shadow=1;gradientColor=none;fontStyle=1;fontColor=#FFFFFF;fontSize=14;flipV=1;flipH=0;" parent="1" vertex="1">
          <mxGeometry x="80" y="600" width="140" height="70" as="geometry" />
        </mxCell>
        <mxCell id="15" value="Azimuth&#xa;compression" style="rounded=1;fillColor=#10739E;strokeColor=none;shadow=1;gradientColor=none;fontStyle=1;fontColor=#FFFFFF;fontSize=14;flipV=1;flipH=0;" parent="1" vertex="1">
          <mxGeometry x="80" y="720" width="140" height="70" as="geometry" />
        </mxCell>
        <mxCell id="16" value="Calibration" style="rounded=1;fillColor=#10739E;strokeColor=none;shadow=1;gradientColor=none;fontStyle=1;fontColor=#FFFFFF;fontSize=14;flipV=1;flipH=0;" parent="1" vertex="1">
          <mxGeometry x="80" y="840" width="140" height="70" as="geometry" />
        </mxCell>
        <mxCell id="42" value="" style="edgeStyle=elbowEdgeStyle;elbow=vertical;strokeWidth=4;endArrow=block;endFill=1;fontStyle=1;strokeColor=#23445D;" parent="1" source="13" target="14" edge="1">
          <mxGeometry x="-376.2727272727273" y="90" width="95.4545454545455" height="100.00000000000001" as="geometry">
            <mxPoint x="-395.3636363636366" y="1040" as="sourcePoint" />
            <mxPoint x="-299.909090909091" y="1140" as="targetPoint" />
          </mxGeometry>
        </mxCell>
        <mxCell id="43" value="" style="edgeStyle=elbowEdgeStyle;elbow=vertical;strokeWidth=4;endArrow=block;endFill=1;fontStyle=1;strokeColor=#23445D;" parent="1" source="14" target="15" edge="1">
          <mxGeometry x="-376.2727272727273" y="99.99999999999997" width="95.4545454545455" height="100.00000000000001" as="geometry">
            <mxPoint x="-395.3636363636366" y="1210" as="sourcePoint" />
            <mxPoint x="-299.909090909091" y="1310" as="targetPoint" />
          </mxGeometry>
        </mxCell>
        <mxCell id="44" value="" style="edgeStyle=elbowEdgeStyle;elbow=vertical;strokeWidth=4;endArrow=block;endFill=1;fontStyle=1;strokeColor=#23445D;" parent="1" source="15" target="16" edge="1">
          <mxGeometry x="-376.2727272727273" y="200" width="95.4545454545455" height="100.00000000000001" as="geometry">
            <mxPoint x="-395.3636363636366" y="1470.0000000000002" as="sourcePoint" />
            <mxPoint x="-299.909090909091" y="1570" as="targetPoint" />
          </mxGeometry>
        </mxCell>
        <mxCell id="Y2bo1etCXWaRGln3_rKA-56" value="" style="edgeStyle=elbowEdgeStyle;elbow=vertical;strokeWidth=4;endArrow=block;endFill=1;fontStyle=1;strokeColor=#23445D;exitX=0.5;exitY=1;exitDx=0;exitDy=0;" parent="1" source="3" target="13" edge="1">
          <mxGeometry x="-481.2727272727277" y="-10.000000000000057" width="95.4545454545455" height="100.00000000000001" as="geometry">
            <mxPoint x="194.5454545454545" y="490" as="sourcePoint" />
            <mxPoint x="280.4545454545456" y="530" as="targetPoint" />
          </mxGeometry>
        </mxCell>
        <mxCell id="Y2bo1etCXWaRGln3_rKA-57" value="Processed file" style="rounded=1;fillColor=#10739E;strokeColor=none;shadow=1;gradientColor=none;fontStyle=1;fontColor=#FFFFFF;fontSize=14;flipV=1;flipH=0;" parent="1" vertex="1">
          <mxGeometry x="80" y="960" width="140" height="70" as="geometry" />
        </mxCell>
        <mxCell id="Y2bo1etCXWaRGln3_rKA-59" value="" style="edgeStyle=orthogonalEdgeStyle;rounded=1;orthogonalLoop=1;jettySize=auto;html=1;endArrow=block;strokeColor=#23445D;strokeWidth=4;endFill=1;fontStyle=1;" parent="1" source="16" target="Y2bo1etCXWaRGln3_rKA-57" edge="1">
          <mxGeometry relative="1" as="geometry" />
        </mxCell>
        <mxCell id="3inxD1MIb9kolvRJ3LJd-47" value="" style="edgeStyle=orthogonalEdgeStyle;rounded=1;orthogonalLoop=1;jettySize=auto;html=1;endArrow=block;strokeColor=#23445D;strokeWidth=4;endFill=1;fontStyle=1;" parent="1" source="3inxD1MIb9kolvRJ3LJd-44" target="3" edge="1">
          <mxGeometry relative="1" as="geometry" />
        </mxCell>
        <mxCell id="3inxD1MIb9kolvRJ3LJd-44" value="DC bias estimation" style="rounded=1;whiteSpace=wrap;html=1;fontSize=14;fillColor=#10739E;strokeColor=none;fontColor=#FFFFFF;shadow=1;gradientColor=none;fontStyle=1;" parent="1" vertex="1">
          <mxGeometry x="80" y="240" width="140" height="70" as="geometry" />
        </mxCell>
        <mxCell id="MvcHEi7twut1YeuxgbQ5-44" value="" style="swimlane;startSize=0;" vertex="1" parent="1">
          <mxGeometry x="50" y="230" width="200" height="710" as="geometry" />
        </mxCell>
        <mxCell id="MvcHEi7twut1YeuxgbQ5-45" value="&lt;div style=&quot;font-size: 13px;&quot;&gt;&lt;font style=&quot;font-size: 17px;&quot;&gt;Focussing pipeline&lt;/font&gt;&lt;/div&gt;" style="text;html=1;align=center;verticalAlign=middle;resizable=0;points=[];autosize=1;strokeColor=none;fillColor=none;" vertex="1" parent="1">
          <mxGeometry x="250" y="560" width="160" height="30" as="geometry" />
        </mxCell>
      </root>
    </mxGraphModel>
  </diagram>
</mxfile>
